<?xml version="1.0" encoding="iso-8859-1"?>
<!-- Generator: Adobe Illustrator 19.0.0, SVG Export Plug-In . SVG Version: 6.00 Build 0)  -->
<svg version="1.1" id="Layer_1" xmlns="http://www.w3.org/2000/svg" xmlns:xlink="http://www.w3.org/1999/xlink" x="0px" y="0px"
	 viewBox="0 0 512.001 512.001" style="enable-background:new 0 0 512.001 512.001;" xml:space="preserve">
<g>
	<g>
		<circle cx="304.924" cy="80.115" r="7.837"/>
	</g>
</g>
<g>
	<g>
		<circle cx="249.042" cy="80.115" r="7.837"/>
	</g>
</g>
<g>
	<g>
		<path d="M490.523,343.813c-0.517-4.298-4.423-7.36-8.719-6.843l-34.822,4.196c-1.485-2.443-3.385-4.613-5.669-6.4l-11.6-9.279
			c-3.8-2.974-8.363-4.731-13.109-5.092l-12.064-9.433c-18.547-14.51-42.104-20.209-64.88-16.112
			c0.057-0.675,0.124-1.335,0.178-2.02c0.573-7.371,0.868-15.422,0.88-23.932c0.001-1.346-0.004-2.705-0.017-4.076
			c-0.014-1.443-0.036-2.901-0.065-4.371c-0.163-8.314-0.572-17.051-1.223-26.079c-0.551-7.719-1.282-15.673-2.17-23.629
			c-0.393-3.586-0.83-7.21-1.285-10.847c-0.345-2.753-0.705-5.514-1.085-8.285c1.144,0.048,2.287,0.078,3.428,0.078
			c26.826,0,52.208-13.219,67.543-35.612l8.646-12.632c4.426-1.777,8.257-4.843,11.015-8.884l8.144-12.192
			c1.646-2.395,2.82-5.082,3.514-7.891l34.485-6.51c4.252-0.802,7.049-4.902,6.247-9.154c-0.804-4.254-4.898-7.049-9.155-6.247
			l-32.951,6.22c-0.734-1.647-1.65-3.204-2.737-4.648l20.063-29.395c2.44-3.575,1.52-8.451-2.054-10.891
			c-3.577-2.44-8.452-1.519-10.891,2.055l-20.063,29.395c-1.744-0.487-3.531-0.773-5.334-0.855l-6.221-32.937
			c-0.805-4.253-4.901-7.049-9.156-6.246c-4.252,0.803-7.049,4.902-6.246,9.155l6.509,34.46c-2.329,1.641-4.372,3.682-6.031,6.098
			c-0.062,0.089-0.12,0.179-0.178,0.27l-8.049,12.048c-2.551,3.737-3.996,8.13-4.188,12.624l-9.003,13.133
			c-8.41,12.283-22.857,19.072-37.675,17.72l-6.565-0.602c-1.614-8.027-3.012-13.915-3.826-16.224
			c-1.438-4.081-5.915-6.226-9.995-4.787c-4.081,1.439-6.224,5.914-4.786,9.997c0.542,1.537,2.234,8.593,4.367,19.85
			c0.006,0.031,0.01,0.063,0.018,0.093c0.611,3.229,1.258,6.802,1.925,10.69h-77.857c2.996-17.476,5.606-28.647,6.299-30.63
			c2.943-8.342,0.008-17.056-3.391-27.142c-2.144-6.362-4.573-13.572-6.148-22.107c-1.614-8.773,1.726-14.035,6.782-21.999
			c4.837-7.618,10.856-17.1,12.989-31.689c2.928-20.088,20.295-20.554,22.227-20.547c0.155,0.005,0.128,0.004,0.284,0.001
			c1.979,0.013,19.36,0.464,22.287,20.546c2.126,14.588,8.146,24.07,12.984,31.691c5.055,7.963,8.395,13.223,6.776,21.994
			c-0.785,4.257,2.029,8.344,6.286,9.128c4.246,0.783,8.342-2.028,9.128-6.285c2.733-14.821-3.21-24.184-8.959-33.239
			c-4.455-7.019-9.062-14.275-10.705-25.551c-3.979-27.296-26.392-34.109-37.909-33.959c-11.486-0.14-33.929,6.665-37.907,33.959
			c-1.648,11.276-6.256,18.532-10.711,25.551c-5.748,9.054-11.692,18.416-8.964,33.24c1.778,9.637,4.513,17.751,6.709,24.27
			c2.473,7.339,4.609,13.678,3.456,16.945c-0.514,1.471-1.262,4.376-2.149,8.337l-10.129-2.673
			c-14.4-3.799-25.642-15.119-29.34-29.542l-3.96-15.424c1.353-4.289,1.504-8.9,0.407-13.226l-3.449-14.084
			c-0.025-0.122-0.053-0.245-0.085-0.366c-0.731-2.837-1.954-5.455-3.581-7.795l17.913-30.152c2.211-3.721,0.986-8.53-2.734-10.74
			c-3.721-2.211-8.529-0.985-10.74,2.734l-17.126,28.828c-1.723-0.541-3.498-0.886-5.301-1.026l-8.789-34.487
			c-1.068-4.194-5.334-6.728-9.529-5.659c-4.194,1.069-6.727,5.335-5.659,9.529l8.788,34.483c-1.517,0.984-2.912,2.135-4.165,3.431
			l-28.83-17.117c-3.723-2.209-8.531-0.983-10.74,2.738c-2.21,3.722-0.984,8.531,2.738,10.739l30.152,17.902
			c-0.312,2.843-0.129,5.721,0.595,8.522l3.524,14.442c1.202,4.671,3.747,8.845,7.287,12.023l3.798,14.829
			c7.375,28.723,29.761,51.26,58.42,58.814l13.27,3.505c-1.002,6.712-1.913,13.354-2.702,19.838
			c-0.343,2.821-0.666,5.615-0.965,8.378c0,0.002,0,0.003,0,0.005c-0.89,7.974-1.62,15.92-2.168,23.61
			c-0.877,12.132-1.316,23.75-1.306,34.532c0,0.001,0,0.002,0,0.003c0.01,7.492,0.241,14.625,0.687,21.249
			c-17.422-2.186-35.021,1.249-50.513,10.046l-13.32,7.569c-4.747-0.344-9.532,0.735-13.787,3.152l-12.68,7.395
			c-2.563,1.456-4.781,3.336-6.622,5.545L82.703,314.6c-4.175-1.141-8.485,1.317-9.627,5.491c-1.142,4.174,1.317,8.485,5.491,9.628
			l32.34,8.848c-0.064,1.802,0.077,3.604,0.421,5.377l-30.92,17.627c-3.761,2.144-5.071,6.93-2.927,10.689
			c1.445,2.536,4.092,3.957,6.815,3.957c1.315,0,2.65-0.332,3.874-1.03l30.927-17.632c1.351,1.198,2.832,2.237,4.416,3.102
			l-8.851,32.334c-1.143,4.174,1.314,8.486,5.489,9.629c0.693,0.19,1.389,0.28,2.074,0.28c3.443,0,6.601-2.287,7.554-5.77
			l9.257-33.815c2.714-0.441,5.349-1.337,7.817-2.697c0.129-0.066,0.255-0.135,0.38-0.208l12.703-7.408
			c3.918-2.242,7.141-5.557,9.289-9.506l13.856-7.868c11.922-6.777,26.497-7.109,38.673-1.032l6.675,18.977
			c1.982,5.635,3.673,10.44,5.113,14.539c-0.498,4.066-0.807,8.216-1.107,12.248c-0.566,7.618-1.1,14.814-2.787,21.064
			c-3.312,12.304-9.382,21.913-18.556,29.376c-0.931,0.759-1.898,1.494-2.897,2.209c-5,3.57-10.853,6.585-17.495,9.011
			c-2.656,0.971-5.438,1.847-8.34,2.628c-7.518,2.018-16.097,3.457-25.505,4.277c-12.681,1.114-23.188,1.63-33.264,0.53
			c-4.299-0.468-8.171,2.636-8.641,6.939c-0.47,4.303,2.636,8.171,6.939,8.641c4.519,0.494,9.044,0.705,13.712,0.705
			c7.054,0,14.436-0.483,22.62-1.202c8.518-0.743,16.207-1.919,23.375-3.564l26.532,30.757c-19.099,4.556-39.838,5.762-60.688,3.448
			c-37.619-4.177-63.077-15.575-82.546-36.956c-19.706-21.624-28.526-48.011-27.756-83.048c0.017-0.791,0.021-1.876,0.025-3.184
			c0.041-11.929,0.629-19.243,1.355-23.722c0.886,5.678,0.958,13.714,0.993,17.513c0.038,4.124,0.07,7.686,0.435,10.303
			c4.667,33.677,18.019,57.781,40.823,73.689c3.549,2.475,8.434,1.606,10.911-1.943c2.476-3.55,1.606-8.434-1.944-10.912
			c-19.288-13.455-30.176-33.469-34.266-62.991c-0.225-1.616-0.255-4.857-0.285-8.287c-0.138-15.215-0.327-36.052-15.501-38.368
			c-3.464-0.523-6.859,0.463-9.562,2.779c-7.089,6.076-8.558,20.532-8.631,41.887c-0.004,1.193-0.007,2.183-0.022,2.899
			c-0.852,38.769,9.563,69.498,31.839,93.942c22.22,24.403,50.717,37.35,92.403,41.979c7.489,0.831,14.97,1.242,22.387,1.242
			c19.652,0,38.84-2.896,56.426-8.583c1.517-0.489,3.023-0.998,4.516-1.528c8.961-3.179,17.482-7.092,25.428-11.678
			c0.966-0.558,1.915-1.137,2.864-1.715c0.35-0.213,0.708-0.416,1.056-0.632c0.001-0.001,0.003-0.002,0.005-0.003
			c0.001,0,0.002-0.001,0.003-0.002c14.806-9.17,27.378-20.675,37.369-34.193c2.571-3.482,1.836-8.387-1.646-10.96
			c-3.48-2.571-8.386-1.837-10.959,1.645c-7.526,10.185-16.752,19.074-27.462,26.517l-28.763-33.354
			c8.462-8.682,14.454-19.414,17.845-32.009c2.073-7.683,2.689-15.969,3.284-23.982c0.344-4.625,0.669-8.992,1.25-13.161
			c0.173-1.239,0.047-2.5-0.368-3.68c-1.568-4.469-3.46-9.844-5.734-16.31l-5.045-14.343h77.153
			c-3.94,11.208-7.044,20.04-9.482,26.983c-0.534,1.521-0.587,3.17-0.151,4.722c1.054,3.741,1.375,7.572,0.956,11.387
			c-0.011,0.104-0.022,0.209-0.028,0.315c-0.753,10.884-2.632,21.332-5.584,31.054c-1.257,4.141,1.08,8.518,5.222,9.776
			c0.76,0.23,1.526,0.34,2.28,0.34c3.361,0,6.468-2.18,7.496-5.562c3.28-10.804,5.37-22.368,6.211-34.373
			c0.522-4.919,0.241-9.847-0.836-14.684c2.158-6.141,4.793-13.642,8.006-22.782l8.739-3.67c13.734-5.768,29.553-3.652,41.281,5.52
			l12.55,9.811c1.544,4.226,4.236,7.97,7.733,10.717l11.408,9.136c0.067,0.056,0.136,0.111,0.205,0.165
			c2.311,1.81,4.881,3.145,7.607,4.01l4.196,34.809c0.48,3.979,3.861,6.901,7.771,6.901c0.313,0,0.63-0.019,0.948-0.057
			c4.297-0.518,7.36-4.422,6.843-8.719l-4.011-33.275c1.696-0.623,3.314-1.435,4.83-2.424l27.999,21.969
			c1.435,1.126,3.14,1.672,4.833,1.672c2.324,0,4.625-1.029,6.17-3c2.672-3.405,2.077-8.332-1.328-11.003l-27.999-21.969
			c0.6-1.704,1.002-3.466,1.203-5.258l33.289-4.011C487.978,352.013,491.042,348.11,490.523,343.813z M175.338,322.002
			l-16.008,9.091c-1.561,0.887-2.771,2.283-3.426,3.955c-0.509,1.298-1.573,3.106-3.81,4.386l-12.515,7.298
			c-0.06,0.031-0.118,0.065-0.176,0.097c-1.641,0.932-3.486,1.295-5.313,1.066c-0.023-0.003-0.046-0.005-0.07-0.008
			c-2.678-0.369-4.977-1.917-6.316-4.268c-1.341-2.344-1.5-5.114-0.439-7.602c0.74-1.737,1.996-3.145,3.708-4.118l12.681-7.396
			c2.329-1.324,4.524-1.245,5.956-0.949c1.864,0.388,3.809,0.083,5.466-0.86l15.609-8.869c13.582-7.711,29.169-10.327,44.406-7.572
			c0.478,3.454,1.023,6.78,1.647,9.946C202.89,312.866,188.027,314.792,175.338,322.002z M222.396,166.98l-11.757-3.105
			c-23.172-6.108-41.272-24.331-47.235-47.552l-4.451-17.378c-0.473-1.846-1.603-3.457-3.177-4.531
			c-1.735-1.183-2.931-2.896-3.437-4.86l-3.525-14.446c-0.468-1.818-0.328-3.688,0.415-5.435c1.049-2.485,3.156-4.293,5.784-4.962
			c2.612-0.668,5.329-0.084,7.462,1.612c1.419,1.123,2.425,2.637,2.918,4.388c0.009,0.041,0.019,0.08,0.028,0.12l3.526,14.398
			c0.615,2.428,0.051,4.449-0.53,5.716c-0.749,1.634-0.915,3.475-0.468,5.217l4.576,17.824c5.107,19.92,20.635,35.555,40.523,40.802
			l11.012,2.906C223.512,160.629,222.954,163.738,222.396,166.98z M242.115,479.116c-0.369,0.194-0.741,0.382-1.112,0.574
			c-0.816,0.419-1.634,0.836-2.462,1.24c-0.549,0.269-1.102,0.53-1.656,0.791c-0.811,0.382-1.626,0.759-2.447,1.127
			c-0.568,0.255-1.139,0.507-1.713,0.754c-0.832,0.359-1.67,0.709-2.512,1.054c-0.569,0.233-1.138,0.467-1.712,0.694
			c-0.891,0.351-1.791,0.689-2.693,1.024c-0.404,0.151-0.808,0.304-1.215,0.45l-26.579-30.811c0.509-0.198,0.992-0.418,1.493-0.622
			c0.752-0.306,1.504-0.611,2.238-0.932c0.759-0.33,1.499-0.675,2.24-1.02c0.717-0.334,1.434-0.668,2.134-1.017
			c0.722-0.359,1.424-0.732,2.127-1.107c0.683-0.364,1.368-0.726,2.034-1.103c0.684-0.389,1.35-0.792,2.017-1.194
			c0.647-0.392,1.296-0.782,1.926-1.187c0.195-0.125,0.403-0.24,0.597-0.368L242.115,479.116z M233.126,201.482
			c0.259-2.063,0.52-4.127,0.801-6.215c0.15-1.114,0.313-2.241,0.47-3.361c0.256-1.837,0.512-3.675,0.785-5.528
			c0.044-0.303,0.093-0.608,0.138-0.911h82.849c0.042,0.285,0.088,0.57,0.13,0.856c0.271,1.839,0.526,3.673,0.782,5.508
			c0.157,1.123,0.32,2.249,0.471,3.369c0.266,1.982,0.515,3.953,0.764,5.925c0.111,0.879,0.23,1.763,0.338,2.639h-87.818
			C232.927,203.008,233.031,202.239,233.126,201.482z M231.092,219.436h91.307c0.256,2.566,0.491,5.119,0.712,7.659H230.38
			C230.6,224.558,230.836,222.006,231.092,219.436z M323.362,300.36c-0.172,1.46-0.357,2.892-0.555,4.297
			c-0.016,0.111-0.028,0.227-0.044,0.336c-0.216,1.515-0.45,2.994-0.698,4.444c-0.073,0.432-0.156,0.844-0.232,1.271
			c-0.18,1.004-0.363,2.001-0.557,2.972c-0.1,0.503-0.208,0.99-0.313,1.483c-0.185,0.869-0.372,1.73-0.57,2.571
			c-0.049,0.211-0.101,0.416-0.153,0.626h-86.984v-0.003c-0.053-0.223-0.109-0.439-0.162-0.664c-0.189-0.808-0.37-1.635-0.548-2.469
			c-0.111-0.52-0.225-1.036-0.332-1.566c-0.19-0.945-0.368-1.914-0.543-2.89c-0.08-0.449-0.167-0.886-0.246-1.342
			c-0.247-1.444-0.48-2.916-0.696-4.426c-0.021-0.145-0.038-0.299-0.058-0.444c-0.193-1.37-0.374-2.764-0.542-4.186
			c-0.012-0.101-0.022-0.207-0.033-0.308h93.298C323.383,300.16,323.373,300.262,323.362,300.36z M324.667,284.387h-95.842
			c-0.123-2.487-0.216-5.043-0.279-7.659h96.4C324.883,279.343,324.79,281.899,324.667,284.387z M228.515,261.055
			c0.002-0.018,0.002-0.037,0.002-0.054c0.027-1.416,0.062-2.845,0.103-4.286c0.011-0.399,0.027-0.806,0.04-1.207
			c0.033-1.046,0.067-2.093,0.109-3.151c0.021-0.539,0.046-1.086,0.069-1.628c0.04-0.935,0.079-1.87,0.124-2.815
			c0.028-0.585,0.06-1.176,0.09-1.764c0.047-0.911,0.095-1.823,0.147-2.742c0.012-0.212,0.026-0.426,0.038-0.638h95.014
			c0.013,0.21,0.026,0.423,0.038,0.633c0.052,0.907,0.099,1.808,0.145,2.707c0.031,0.613,0.065,1.229,0.094,1.838
			c0.043,0.894,0.08,1.781,0.118,2.667c0.025,0.591,0.052,1.187,0.075,1.775c0.038,0.975,0.069,1.939,0.099,2.904
			c0.016,0.482,0.034,0.97,0.048,1.448c0.041,1.424,0.075,2.837,0.102,4.235c0,0.026,0.001,0.052,0.001,0.078H228.515z
			 M330.955,166.187l2.157,0.198c20.477,1.863,40.42-7.511,52.033-24.47l10.407-15.182c1.021-1.489,1.496-3.285,1.345-5.083
			c-0.164-1.974,0.337-3.88,1.497-5.579l8.203-12.278c0.013-0.02,0.024-0.039,0.038-0.057c1.067-1.502,2.542-2.596,4.299-3.177
			c2.557-0.86,5.304-0.48,7.533,1.045c0.061,0.041,0.12,0.082,0.182,0.12c2.118,1.527,3.411,3.869,3.56,6.466
			c0.001,0.025,0.002,0.05,0.003,0.075c0.067,1.309-0.134,3.279-1.533,5.316l-8.158,12.211c-1.506,2.205-3.516,3.098-4.937,3.461
			c-1.847,0.469-3.461,1.596-4.537,3.168l-10.133,14.805c-13.49,19.702-36.588,30.616-60.367,28.537
			C332.023,172.474,331.489,169.27,330.955,166.187z M433.047,359.071c-0.004,0.005-0.009,0.01-0.014,0.016
			c-0.004,0.005-0.006,0.01-0.01,0.015c-1.644,2.082-4.096,3.271-6.75,3.271c-0.044,0-0.088,0-0.131-0.001
			c-1.846-0.028-3.594-0.635-5.066-1.758c-0.01-0.008-0.02-0.017-0.029-0.024l-11.591-9.283c-1.959-1.539-2.744-3.484-3.057-4.843
			c-0.403-1.751-1.395-3.31-2.81-4.417l-14.501-11.336c-15.22-11.903-35.424-15.198-53.547-8.943
			c0.786-3.304,1.486-6.783,2.094-10.445c19.854-5.105,40.946-0.77,57.251,11.986l14.137,11.055
			c1.499,1.172,3.352,1.763,5.275,1.651c1.458-0.087,3.646,0.164,5.692,1.765l11.6,9.278c1.443,1.131,2.46,2.652,2.945,4.407
			c0.015,0.059,0.029,0.117,0.045,0.176C435.265,354.24,434.704,356.949,433.047,359.071z"/>
	</g>
</g>
<g>
</g>
<g>
</g>
<g>
</g>
<g>
</g>
<g>
</g>
<g>
</g>
<g>
</g>
<g>
</g>
<g>
</g>
<g>
</g>
<g>
</g>
<g>
</g>
<g>
</g>
<g>
</g>
<g>
</g>
</svg>
