<?xml version="1.0" encoding="iso-8859-1"?>
<!-- Generator: Adobe Illustrator 19.0.0, SVG Export Plug-In . SVG Version: 6.00 Build 0)  -->
<svg version="1.1" id="Capa_1" xmlns="http://www.w3.org/2000/svg" xmlns:xlink="http://www.w3.org/1999/xlink" x="0px" y="0px"
	 viewBox="0 0 512 512" style="enable-background:new 0 0 512 512;" xml:space="preserve">
<g>
	<g>
		<g>
			<rect x="130.581" y="151.09" width="15" height="15"/>
			<rect x="155.581" y="151.09" width="15" height="15"/>
			<rect x="105.581" y="151.09" width="15" height="15"/>
			<rect x="146.07" y="353.83" width="15" height="117.74"/>
			<rect x="146.07" y="328.83" width="15" height="15"/>
			<rect x="146.07" y="303.83" width="15" height="15"/>
			<polygon points="218.018,164.894 203.411,179.5 165.625,179.5 184.592,484.524 172.868,497 134.266,497 122.542,484.524 
				123.13,475.063 108.159,474.133 107.169,490.068 127.779,512 179.357,512 199.966,490.068 181.586,194.5 209.623,194.5 
				233.018,171.106 233.018,88.74 218.018,88.74 			"/>
			<polygon points="109.091,459.162 124.061,460.092 141.51,179.5 103.724,179.5 89.117,164.894 89.117,25.973 100.091,15 
				105.698,15 105.698,36.453 120.698,36.453 120.698,0 93.878,0 74.117,19.76 74.117,171.107 97.511,194.5 125.548,194.5 			"/>
			<polygon points="186.438,0 186.438,123 176.857,123 176.857,0 130.277,0 130.277,123 120.698,123 120.698,51.453 105.698,51.453 
				105.698,138 145.277,138 145.277,15 161.857,15 161.857,138 201.438,138 201.438,15 207.044,15 218.018,25.973 218.018,73.74 
				233.018,73.74 233.018,19.76 213.258,0 			"/>
			<rect x="351.041" y="353.83" width="15" height="117.74"/>
			<rect x="351.041" y="303.83" width="15" height="15"/>
			<rect x="351.041" y="328.83" width="15" height="15"/>
			<path d="M356.518,22.88v15c18.097,0,34.072,12.171,38.847,29.597l14.467-3.965C403.274,39.589,381.352,22.88,356.518,22.88z"/>
			
				<rect x="397.48" y="75.299" transform="matrix(-0.0941 -0.9956 0.9956 -0.0941 360.6555 493.774)" width="15.001" height="15.001"/>
			
				<rect x="399.792" y="100.211" transform="matrix(0.0941 0.9956 -0.9956 0.0941 476.1994 -307.9092)" width="15.001" height="15.001"/>
			<rect x="334.021" y="151.09" width="45" height="15"/>
			<polygon points="374.938,248.913 389.565,484.524 377.841,497 339.24,497 327.518,484.527 337.906,319.751 322.935,318.807 
				312.138,490.066 332.75,512 384.33,512 404.938,490.069 389.908,247.983 			"/>
			<path d="M437.524,107.695l-3.707-39.199c-1.776-18.78-10.438-36.114-24.39-48.809C395.477,6.992,377.404,0,358.541,0
				c-18.863,0-36.936,6.992-50.888,19.687c-13.952,12.695-22.614,30.029-24.39,48.809l-3.707,39.2
				c-0.238,2.516-0.358,5.065-0.358,7.577c0,33.229,21.049,62.972,51.884,74.341l-7.202,114.224l14.971,0.944l7.948-126.065
				l-5.825-1.647c-27.541-7.788-46.775-33.2-46.775-61.796c0-2.042,0.098-4.116,0.292-6.165l3.707-39.199
				C301.156,38.605,327.099,15,358.541,15c31.442,0,57.384,23.605,60.344,54.908l3.707,39.199c0.194,2.049,0.292,4.124,0.292,6.165
				c0,28.471-19.13,53.851-46.521,61.719l-5.788,1.663l3.433,55.289l14.971-0.93l-2.702-43.508
				c30.67-11.446,51.606-41.147,51.606-74.233C437.883,112.761,437.763,110.211,437.524,107.695z"/>
		</g>
	</g>
</g>
<g>
</g>
<g>
</g>
<g>
</g>
<g>
</g>
<g>
</g>
<g>
</g>
<g>
</g>
<g>
</g>
<g>
</g>
<g>
</g>
<g>
</g>
<g>
</g>
<g>
</g>
<g>
</g>
<g>
</g>
</svg>
